# xmcd
#
# Track frame offsets: 
#        150
#        13829
#        30046
#        49835
#        60919
#        75890
#        90015
#        102370
#        121349
#        136305
#        154573
#        171213
#
# Disc length: 2479 seconds
#
# Revision: 2
# Processed by: cddbd v1.5.1PL0 Copyright (c) Steve Scherf et al.
# Submitted via: ExactAudioCopy v0.90b4
#
DISCID=7809ad0c
DTITLE=Randy Travis - 36 All-Time Greatest Hits - Disc 3
DYEAR=1900
DGENRE=Country
TTITLE0=1982
TTITLE1=Point Of Light
TTITLE2=Are We In Trouble Now
TTITLE3=Card Carryin' Fool
TTITLE4=Gonna Walk That Line
TTITLE5=Honky Tonk Side Of Town
TTITLE6=I'm Gonna Have A Little Talk
TTITLE7=It's Out Of My Hands
TTITLE8=That's Where I Draw The Line
TTITLE9=Let Me Try
TTITLE10=Good Intentions
TTITLE11=There'll Always Be A Honky Tonk Somewhere
EXTD=
EXTT0=
EXTT1=
EXTT2=
EXTT3=
EXTT4=
EXTT5=
EXTT6=
EXTT7=
EXTT8=
EXTT9=
EXTT10=
EXTT11=
PLAYORDER=
